<svg xmlns="http://www.w3.org/2000/svg" width="100" height="100">
  <path id="like" fill="none" stroke="currentColor" stroke-width="7" stroke-miterlimit="10" d="M114 45.8C114 32.2 103 21 89.6 21c-9.6 0-20 7.2-25.5 13.7C58.7 28.3 48 21 38.6 21 25 21 14 32.3 14 46c0 25.7 32.5 46.3 50 61 17.5-14.7 50-35 50-61z"/>
  <g id="unlike-2" fill="currentColor">
    <path d="M21.3 6.5h-3c-.3 0-.5-.2-.5-.5s.2-.5.5-.5h3c.3 0 .5.2.5.5s-.2.5-.5.5zm1 3h-4c-.3 0-.5-.2-.5-.5s.2-.5.5-.5h4c.3 0 .5.2.5.5s-.2.5-.5.5zm0 3h-4c-.3 0-.5-.2-.5-.5s.2-.5.5-.5h4c.3 0 .5.2.5.5s-.2.5-.5.5z"/>
    <path d="M14 21.5c-.6 0-1.2-.3-1.6-1V18l-.2-.7c-.5-1.4-1.5-2.6-3-3.8l-.3-.3c-.4-.4-1-.7-1.6-.7-.3 0-.5-.2-.5-.5s0-.5.4-.5c1 0 1.7.4 2.3 1v.2c1.8 1.3 3 2.7 3.4 4.3.2.2.3.5.3 1v2c.3.5.8.6 1.2.4 1-.4 1.6-2 .7-5.3v-.3l.4-.2H21c1.3 0 1.7-.3 1.7-1.2 0-.8-.2-.8-.4-.8s-.4-.2-.5-.4c0 0 0-.4.3-.5.4 0 .6-.4.6-.8s0-1-.6-1.3c-.2 0-.2-.4 0-.7 0-.3.2-1 0-1.4-.2-.3-.4-.7-.8-.8-.3 0-.4-.4-.4-.6.2-.5 0-1.2-.3-1.7-.3-.4-.8-.8-1.8-.8h-8.2c-.3 0-.6 0-.8.3-.4.4-1 .7-1.8.7h-.7c-.3 0-.5-.2-.5-.5s.2-.5.5-.5H8c.3 0 .7-.2 1-.5.4-.3 1-.5 1.5-.5h8.2c1 0 2 .4 2.6 1.2.4.6.6 1.3.6 2L23 7v2c.4.3.7 1 .6 1.8 0 .4-.2.8-.3 1 .4.5.4 1.2.4 1.5 0 2.2-2 2.2-2.6 2.2h-4.7c.8 3.5-.2 5.3-1.4 5.8l-1 .2z"/>
    <path d="M6.8 13.5h-6c-.3 0-.5-.2-.5-.5V3c0-.3.2-.5.5-.5h6c.3 0 .5.2.5.5v10c0 .3-.2.5-.5.5zm-5.5-1h5v-9h-5v9z"/>
  </g>
  <path id="run" fill="none" stroke="currentColor" stroke-width="7" stroke-miterlimit="10" d="M26.5 64V20.7L64 42.4 101.5 64 64 85.7l-37.5 21.6z"/>
  <path id="pause" fill="none" stroke="currentColor" stroke-width="7" stroke-miterlimit="10" d="M38.4 25h14v78h-28V25zm51.2 0h14.2v78H75.6V25z"/>
  <path id="right" fill="none" stroke="currentColor" stroke-width="7" stroke-miterlimit="10" d="M40.5 17l47 47m0 0l-47 47" stroke-linecap="square"/>
</svg>
