<?xml version="1.0" encoding="utf-8"?>
<svg id="master-artboard" viewBox="0 0 1400 980" version="1.1" xmlns="http://www.w3.org/2000/svg" x="0px" y="0px" style="enable-background:new 0 0 1400 980;" width="1400px" height="980px"><rect id="ee-background" x="0" y="0" width="1400" height="980" style="fill: white; fill-opacity: 0; pointer-events: none;"/><defs><style id="ee-google-fonts">@import url(https://fonts.googleapis.com/css?family=Satisfy:400);</style></defs><path class="st4" d="M970.9,342.2H755.9c-20.4,0-37-16.7-37-37V87.8c0-20.4,16.7-37,37-37h215.1c20.4,0,37,16.7,37,37v217.3&#10;&#9;&#9;C1008,325.6,991.3,342.2,970.9,342.2z" style="fill: rgb(65, 113, 176); fill-opacity: 1;" transform="matrix(2.0171000957489014, 0, 0, 2.0171000957489014, -1066.0121368279931, 100.22263371661779)"/><path class="st2" d="M541.1,426.7c75.9,0,138,59.3,142.5,134c0.2-2.9,0.3-5.8,0.3-8.7c0-78.8-63.9-142.7-142.7-142.7&#10;&#9;&#9;&#9;c-78.8,0-142.7,63.9-142.7,142.7c0,2.9,0.1,5.8,0.3,8.7C403.1,486,465.1,426.7,541.1,426.7z" style="fill: rgb(55, 96, 150); fill-opacity: 1;" transform="matrix(2.03205943107605, 0, 0, 2.300856828689575, -424.0976470818996, -639.5864435462606)"/><g><g transform="matrix(1.316389560699463, 0, 0, 1.316389560699463, -403.009521484375, -58.20066833496094)"><path d="M 527.400024 223.699997 H 550.500025 V 232.399997 H 527.400024 V 223.699997 Z" class="st4" style="fill: rgb(255, 255, 255);" transform="matrix(2.541767120361328, 0, 0, 2.541767120361328, -624.4923095703126, -45.60919189453125)"/><path d="M 527.400024 211.199997 H 550.500025 V 219.899997 H 527.400024 V 211.199997 Z" class="st4" style="fill: rgb(255, 255, 255);" transform="matrix(2.541767120361328, 0, 0, 2.541767120361328, -624.4923095703126, -47.271949768066406)"/><path d="M 527.400024 197.899994 H 550.500025 V 206.599994 H 527.400024 V 197.899994 Z" class="st4" style="fill: rgb(255, 255, 255);" transform="matrix(2.541767120361328, 0, 0, 2.541767120361328, -624.4923095703126, -46.096405029296875)"/><path d="M 527.400024 184.399994 H 550.500025 V 193.099994 H 527.400024 V 184.399994 Z" class="st4" style="fill: rgb(255, 255, 255);" transform="matrix(2.541767120361328, 0, 0, 2.541767120361328, -624.4923095703126, -44.554630279541016)"/><path d="M 527.400024 170.699997 H 550.500025 V 179.399997 H 527.400024 V 170.699997 Z" class="st4" style="fill: rgb(255, 255, 255);" transform="matrix(2.541767120361328, 0, 0, 2.541767120361328, -624.4923095703126, -43.094566345214844)"/><path d="M 527.400024 157.199997 H 550.500025 V 165.899997 H 527.400024 V 157.199997 Z" class="st4" style="fill: rgb(255, 255, 255);" transform="matrix(2.541767120361328, 0, 0, 2.541767120361328, -624.4923095703126, -42.136993408203125)"/><path d="M 527.400024 144 H 550.500025 V 152.7 H 527.400024 V 144 Z" class="st4" style="fill: rgb(255, 255, 255);" transform="matrix(2.541767120361328, 0, 0, 2.541767120361328, -624.4923095703126, -43.1370849609375)"/></g><g transform="matrix(1, 0, 0, 1, 0, 0)"><path d="M 563 223.699997 H 586.1 V 232.399997 H 563 V 223.699997 Z" class="st4" style="fill: rgb(38, 66, 102);" transform="matrix(3.3459556102752686, 0, 0, 3.3459556102752686, -1246.281005859375, -118.24007415771482)"/><path d="M 563 211.199997 H 586.1 V 219.899997 H 563 V 211.199997 Z" class="st4" style="fill: rgb(38, 66, 102);" transform="matrix(3.3459556102752686, 0, 0, 3.3459556102752686, -1246.281005859375, -120.42897796630857)"/><path d="M 563 197.899994 H 586.1 V 206.599994 H 563 V 197.899994 Z" class="st4" style="fill: rgb(38, 66, 102);" transform="matrix(3.3459556102752686, 0, 0, 3.3459556102752686, -1246.281005859375, -118.88149261474607)"/><path d="M 563 184.399994 H 586.1 V 193.099994 H 563 V 184.399994 Z" class="st4" style="fill: rgb(38, 66, 102);" transform="matrix(3.3459556102752686, 0, 0, 3.3459556102752686, -1246.281005859375, -116.85191345214841)"/><g transform="matrix(-0.26474764943122864, -9.891939356521107e-8, 9.891939356521107e-8, -0.26474764943122864, 751.2386474609375, 557.248046875)"><g transform="matrix(1, 0, 0, 1, -2.2737367544323206e-13, 0)"><path d="M 588 596.7000122070312 L 588 501 L 639.4000244140625 507.3999938964844 L 623 596.7000122070312 Z" class="st2" style="fill: rgb(255, 255, 255); fill-opacity: 1;" transform="matrix(1.5755629539489746, 0, 0, 1.5755629539489746, -583.5913085937501, -512.3984375)"/><path class="st2" d="M474.9,498.1c-10.2,2-19.8,14.7-15.3,21.5c26.2-1.4,51.4,2.7,34.4,2.5c-11.1-0.2-24.2,1.6-33.3,3.1&#10;&#9;&#9;&#9;c-2.6,3.9-5.7,11.1,1.1,17.5c26.8-1.7,53.4,2.7,36,2.4c-12.1-0.2-26.7,2-35.8,3.6c-2.3,4.5-4.7,11.7,0.2,16.6&#10;&#9;&#9;&#9;c26.7-1.6,52.9,2.7,35.6,2.4c-11.5-0.2-25.2,1.8-34.3,3.3c-2.6,5.8-5.3,17,10.4,19.4c21.4,3.3,36.2-6.7,48.1-5.2&#10;&#9;&#9;&#9;c11.9,1.4-9.2,11.7-11.6,32.7c-2,17.3,6,26.1,14.7,28.8c-0.7-11,1-22.9,5.5-25.9c3.5-2.3,7.6-2.4,11.3-1.6&#10;&#9;&#9;&#9;c2.8-18.2,9-38.3,38.3-37.8v-69.1C580.1,512.4,571.6,480.5,474.9,498.1z" style="fill: rgb(255, 255, 255); fill-opacity: 1;" transform="matrix(1.5755629539489746, 0, 0, 1.5755629539489746, -583.5913085937501, -512.3984375)"/></g><path class="st2" d="M528.2,631.4c-1.1,4.8-1.1,10.5-0.4,16c0.9,0.1,1.8,0.2,2.7,0.2c8.2,0.1,8.9-11.6,10.8-25.1&#10;&#9;&#9;&#9;C536.1,621.7,530.3,622,528.2,631.4z" style="fill: rgb(255, 255, 255); fill-opacity: 1;" transform="matrix(1.5755629539489746, 0, 0, 1.5755629539489746, -583.5913085937501, -512.3984375)"/></g></g><g transform="matrix(1.316389560699463, 0, 0, 1.316389560699463, -403.009521484375, -58.20066833496094)"><path d="M 527.400024 223.699997 H 550.500025 V 232.399997 H 527.400024 V 223.699997 Z" class="st4" style="fill: rgb(255, 255, 255);" transform="matrix(2.541766881942749, 0, 0, 2.541766881942749, -476.3172302246095, -45.60913848876953)"/><path d="M 527.400024 211.199997 H 550.500025 V 219.899997 H 527.400024 V 211.199997 Z" class="st4" style="fill: rgb(255, 255, 255);" transform="matrix(2.541766881942749, 0, 0, 2.541766881942749, -476.3172302246095, -47.27189636230469)"/><path d="M 527.400024 197.899994 H 550.500025 V 206.599994 H 527.400024 V 197.899994 Z" class="st4" style="fill: rgb(255, 255, 255);" transform="matrix(2.541766881942749, 0, 0, 2.541766881942749, -476.3172302246095, -46.096351623535156)"/><path d="M 527.400024 184.399994 H 550.500025 V 193.099994 H 527.400024 V 184.399994 Z" class="st4" style="fill: rgb(255, 255, 255);" transform="matrix(2.541766881942749, 0, 0, 2.541766881942749, -476.3172302246095, -44.5545768737793)"/><path d="M 527.400024 170.699997 H 550.500025 V 179.399997 H 527.400024 V 170.699997 Z" class="st4" style="fill: rgb(255, 255, 255);" transform="matrix(2.541766881942749, 0, 0, 2.541766881942749, -476.3172302246095, -43.094520568847656)"/><path d="M 527.400024 157.199997 H 550.500025 V 165.899997 H 527.400024 V 157.199997 Z" class="st4" style="fill: rgb(255, 255, 255);" transform="matrix(2.541766881942749, 0, 0, 2.541766881942749, -476.3172302246095, -42.13697814941406)"/><path d="M 527.400024 144 H 550.500025 V 152.7 H 527.400024 V 144 Z" class="st4" style="fill: rgb(255, 255, 255);" transform="matrix(2.541766881942749, 0, 0, 2.541766881942749, -476.3172302246095, -43.13697814941406)"/></g><g transform="matrix(1.316389560699463, 0, 0, 1.316389560699463, -412.59112548828125, -32.68132019042969)"><path d="M 563 223.699997 H 586.1 V 232.399997 H 563 V 223.699997 Z" class="st4" style="fill: rgb(38, 66, 102);" transform="matrix(2.541767120361328, 0, 0, 2.541767120361328, -782.35498046875, -64.99501037597659)"/><path d="M 563 211.199997 H 586.1 V 219.899997 H 563 V 211.199997 Z" class="st4" style="fill: rgb(38, 66, 102);" transform="matrix(2.541767120361328, 0, 0, 2.541767120361328, -782.35498046875, -66.6578063964844)"/></g><g transform="matrix(1.316389560699463, 0, 0, 1.316389560699463, -412.59112548828125, -32.68132019042969)"><path d="M 563 223.699997 H 586.1 V 232.399997 H 563 V 223.699997 Z" class="st4" style="fill: rgb(38, 66, 102);" transform="matrix(2.541767120361328, 0, 0, 2.541767120361328, -485.0126342773438, -64.99504089355472)"/><path d="M 563 211.199997 H 586.1 V 219.899997 H 563 V 211.199997 Z" class="st4" style="fill: rgb(38, 66, 102);" transform="matrix(2.541767120361328, 0, 0, 2.541767120361328, -485.0126342773438, -66.65781402587893)"/><path d="M 563 223.699997 H 586.1 V 232.399997 H 563 V 223.699997 Z" class="st4" style="fill: rgb(38, 66, 102);" transform="matrix(2.541767120361328, 0, 0, 2.541767120361328, -485.0126037597657, -131.05986022949222)"/><path d="M 563 211.199997 H 586.1 V 219.899997 H 563 V 211.199997 Z" class="st4" style="fill: rgb(38, 66, 102);" transform="matrix(2.541767120361328, 0, 0, 2.541767120361328, -485.0126037597657, -132.05986022949222)"/></g></g></svg>