<svg xmlns="http://www.w3.org/2000/svg" viewBox="0 135 590 365" xmlns:bx="https://boxy-svg.com">
  <path id="triangle-2-background" d="M295 135l295 365H0l295-365z" bx:shape="triangle 0 135 590 365 0.5 0 1@a7d55324" opacity=".1"/>
  <path id="triangle-1-background" d="M295 215.3L590 500H0l295-284.7z" bx:shape="triangle 0 215.308 590 284.692 0.5 0 1@20f0a295" opacity=".1"/>
  <path id="triangle-1" fill="none" stroke="currentColor" stroke-opacity=".7" stroke-width="42" d="M245 180l90 150H155l90-150z"/>
  <path id="triangle-2" fill="none" stroke="currentColor" stroke-opacity=".7" stroke-width="42" d="M345 180l90 150H255l90-150z"/>
  <path id="text-start" fill="currentColor" fill-opacity=".7" d="M113 427.3c-1 0-1.7-.3-2.2-.8-.5-.5-1.2-1.5-2.2-3l-11-17.2c-.3-.6-.7-1-1.2-1.3-.4-.2-1-.3-1.4-.3h-1.5c-.8 0-1.4.2-1.8.7-.3.5-.5 1.2-.5 2.2v46.8h1v-46.8-1.4c.3-.4.7-.6 1.3-.6h1.3c.4 0 .8 0 1 .2.5 0 .8.5 1.2 1l11 17c1 1.7 1.7 3 2.3 3.5.6.6 1.5 1 2.8 1 1.4 0 2.4-.4 3-1l2.4-3.4 11-17c.2-.7.6-1 1-1.2l1-.2h1.3c.6 0 1 .2 1.2.6l.2 1.4v46.8h1v-46.8c0-1-.3-1.7-.7-2.2-.4-.5-1-.7-1.8-.7H131c-.3 0-.8 0-1.2.3-.5.2-1 .7-1.2 1.3l-11 17c-1 1.7-1.7 2.7-2.2 3.2-.4.5-1.2.8-2.3.8m204 27v-.8h-13.7v-48H317v-.8h-28.4v1h13.8v47.8h-13.8v1H317zm-33.2 8.4c-1 0-2-.2-2.5-.8-.5-.6-.7-1.4-.7-2.6v-11c0-1 .2-2 .7-2.5.5-.6 1.4-1 2.5-1h8.8v-30.8h-8.8c-1 0-2-.3-2.5-.8s-.7-1.3-.7-2.5v-11.3c0-1 .2-2 .7-2.5.5-.5 1.4-.8 2.5-.8h38c1 0 2 .3 2.5.8s.7 1.4.7 2.5V411c0 1-.2 2-.7 2.4-.6.5-1.4.8-2.5.8H313v31h8.8c1 0 2 .2 2.5.7.5.4.7 1.3.7 2.4v11c0 1.2-.2 2-.7 2.5-.6.5-1.4.7-2.5.7h-38m-22.8-58h-19.8c-2.7 0-5 .8-6.6 2.4-1.6 1.6-2.5 3.6-2.5 6v7.6c0 2.6.6 4.3 1.6 5.3 1 .8 2.3 1.4 3.8 1.7l18.8 4c1.7.4 3 1 4 2.2 1 1 1.5 3 1.5 5.8v5.3c0 2.6-1 4.6-2.5 6.2-1.6 1.5-3.8 2.3-6.5 2.3h-22.3v1h22.3c3 0 5.4-1 7.2-2.7 1.7-1.7 2.6-4 2.6-6.7V440c0-3.2-.6-5.4-1.8-6.6-1-1.3-2.6-2-4.4-2.4l-18.8-4c-1.4-.2-2.5-.8-3.3-1.6-1-1-1.3-2.4-1.3-4.6V413c0-2 .8-3.8 2.3-5.3 1.4-1.4 3.4-2 6-2H261v-1zm-7.2 58h-28.2c-1 0-2-.2-2.4-.8-.5-.6-.8-1.4-.8-2.6v-10.8c0-1 .3-2 .8-2.5.5-.4 1.3-.7 2.4-.7h24c.8 0 1.4-.2 1.8-.8.3-.5.5-1 .5-1.8 0-1-.3-2-.6-2.3-.4-.5-1-.8-1.8-1l-13.4-1.8c-4-.6-7.5-2-10-4.3-2.5-2.2-3.8-5.8-3.8-11v-9.7c0-5.2 1.6-9.2 5-12 3.2-2.8 7.7-4.2 13.5-4.2h25c1 0 1.8.3 2.3.8.5.5.8 1.4.8 2.5v11c0 1.2-.2 2-.7 2.5-.5.6-1.3.8-2.4.8h-21c-.7 0-1.3.3-1.7.8-.4.5-.6 1.2-.6 2s.2 1.5.6 2c.4.6 1 1 1.8 1l13.4 1.8c4 .6 7.5 2 10 4.2 2.6 2.2 4 6 4 11v9.7c0 5.2-1.8 9.2-5 12-3.4 2.8-8 4.2-13.6 4.2m-87-58V443c0 3.8 1.3 6.8 3.7 9 2.5 2.4 7.2 3.5 14.2 3.5 7 0 11.7-1 14.2-3.4 2.4-2.2 3.6-5.2 3.6-9v-38.3h-1V443c0 3.5-1 6.3-3.5 8.5-2.2 2-6.7 3-13.3 3-6.6 0-11-1-13.5-3-2.3-2.2-3.5-5-3.5-8.4v-38.3h-1zm45.4 40.6c0 3-.4 5.4-1.3 7.7-1 2.3-2.3 4.3-4.3 6-2 1.5-5 2.8-8.5 3.7-3.5 1-8 1.4-13.6 1.4s-10-.4-13.7-1.3c-3.6-1-6.4-2.2-8.5-3.8-2-1.7-3.5-3.7-4.3-6-.8-2.3-1.2-4.8-1.2-7.7v-45.6c0-1 .3-2 .8-2.5s1.3-.8 2.4-.8h14c1.2 0 2 .3 2.5.8s.7 1.4.7 2.5v42c0 1.3.5 2.3 1.4 3 1 1 3 1.4 6 1.4s5-.4 6-1.2c1-.8 1.4-1.8 1.4-3v-42c0-1.2.2-2 .7-2.6.4-.5 1.2-.8 2.4-.8H209c1 0 2 .3 2.4.8.5.5.8 1.4.8 2.5v45.6m-114 17.4H85c-1.2 0-2-.2-2.5-.8-.5-.6-.8-1.4-.8-2.6v-59.7c0-1 .3-2 .8-2.5s1.3-.8 2.4-.8h14.3c1 0 1.7.2 2.4.7.6.5 1.2 1.2 1.7 2.2l8 15 .8 1.2c.2.2.5.4.8.4h.8c.4 0 .7-.2 1-.4l.6-1.2 8-15c.5-1 1-1.7 1.7-2 .7-.6 1.5-.8 2.5-.8H142c1 0 2 .3 2.4.8.5.5.8 1.4.8 2.5v59.7c0 1.2-.3 2-.8 2.5s-1.3.7-2.5.7H128c-1 0-2-.2-2.5-.8-.5-.6-.7-1.4-.7-2.6V427l-5.3 10c-.5 1-1.2 1.8-2 2.3-.6.4-1.6.7-2.7.7h-3.6c-1 0-2-.3-2.8-.7-.7-.5-1.4-1.2-2-2.3l-5.2-10v32.4c0 1.2-.2 2-.7 2.5-.5.5-1.4.7-2.5.7z"/>
  <path id="text-end" fill="currentColor" fill-opacity=".7" d="M480 413.6v14h8c1.6 0 2.8-.5 3.3-1.4.5-1 .8-2 .8-3.2v-4.8c0-1.2-.2-2.2-.7-3.2-.5-1-1.7-1.4-3.4-1.4h-8zm-9.3 21.8v-29.8H489c2.7 0 4.8.3 6.5 1 1.6.5 3 1.3 3.7 2.3 1 1 1.5 2.2 2 3.6.2 1.4.4 3 .4 4.6v6.8c0 1.7-.2 3.2-.5 4.6-.3 1.4-1 2.6-1.8 3.6s-2 1.8-3.7 2.3c-1.7.6-3.8 1-6.4 1h-18.3m18.4.8c3 0 5-.3 7-1 1.7-.5 3-1.4 4-2.5 1-1 1.6-2.3 2-3.8.3-1.5.5-3.2.5-5v-6.8c0-1.8-.2-3.4-.6-5-.4-1.5-1-2.8-2-4-1-1-2.3-2-4-2.5-2-.7-4-1-7-1H470v49.7h1v-18H489m-12 26.3h-14c-1 0-2-.2-2.4-.8-.5-.6-.8-1.4-.8-2.6v-59.7c0-1 .3-2 .8-2.5s1.3-.8 2.4-.8h27.3c8 0 13.6 1.7 16.6 5 3 3.3 4.4 7.6 4.4 13v11.8c0 5.3-1.5 9.6-4.5 13-3 3.3-8.6 5-16.7 5H480v15.2c0 1.2-.2 2-.7 2.5-.5.5-1.3.7-2.4.7M413.2 442c0 1.2.5 2.3 1.4 3 1 1 3 1.3 6 1.3 3.3 0 5.4-.4 6.3-1.2 1-.7 1.3-1.8 1.3-3v-24.8c0-1-.4-2-1.3-3-1-.8-3-1.2-6.2-1.2s-5.2.4-6 1.2c-1 1-1.5 2-1.5 3V442zm-9.7 1.2V416c0-3.4 1.2-6.2 3.6-8.3 2.4-2 6.8-3.2 13.4-3.2 6.6 0 11.2 1 13.6 3.2 2.4 2 3.7 5 3.7 8.3v27.2c0 3.4-1.4 6.2-3.8 8.3-2.4 2.2-7 3.2-13.6 3.2s-11-1-13.4-3.2c-2.4-2-3.6-5-3.6-8.3m35.2 0V416c0-3.6-1.3-6.6-4-9-2.4-2.2-7.2-3.4-14.2-3.4-7 0-11.6 1.2-14 3.5-2.6 2.4-4 5.4-4 9v27.2c0 3.7 1.4 6.7 4 9 2.4 2.3 7 3.4 14 3.4s11.8-1 14.3-3.4c2.5-2.3 3.8-5.3 3.8-9m9.7 2c0 3-.4 5.5-1.2 7.8-.8 2.3-2.3 4.3-4.3 6-2 1.5-5 2.8-8.5 3.7-3.6 1-8 1.4-13.7 1.4-5.5 0-10-.4-13.7-1.3-3.5-1-6.4-2.2-8.4-3.8-2-1.7-3.5-3.7-4.3-6-.8-2.3-1.2-4.8-1.2-7.7V414c0-3 .5-5.5 1.3-7.8s2.2-4.3 4.3-6c2-1.6 5-3 8.5-3.8 3.7-1 8.3-1.4 13.8-1.4 5.6 0 10 .5 13.7 1.4 3.6 1 6.4 2.2 8.5 4 2 1.6 3.5 3.5 4.3 5.8.8 2.3 1.2 5 1.2 7.7v31.3m-90 9h1v-48.7h18.3v-1h-37.4v1h18.2v48.8zm7.8 8.4H352c-1.3 0-2-.2-2.6-.8-.5-.6-.7-1.4-.7-2.6v-45.2h-13.2c-1 0-2-.3-2.4-.8-.4-.5-.7-1.3-.7-2.5v-11.3c0-1 .3-2 .8-2.5.6-.5 1.4-.8 2.5-.8h47c1.3 0 2 .3 2.6.8.6.5 1 1.4 1 2.5V411c0 1-.4 2-1 2.4-.4.5-1.2.8-2.4.8h-13v45.2c0 1.2-.3 2-.8 2.5s-1.4.7-2.5.7"/>
</svg>
