<svg xmlns="http://www.w3.org/2000/svg" width="1024" height="1024">
  <path fill="#a5a6a9" d="M0 0h1024v1024H0z"/>
  <g fill-opacity=".5">
    <path fill="#fff" d="M934 714L98 610l180-480"/>
    <path fill="#fff" d="M490 898l-216-84 648-464"/>
    <path fill="#fff" d="M298 170l612 216-268-272"/>
    <path fill="#606168" d="M82 1086l1004-16-16-496"/>
    <path fill="#5b5c63" d="M254 1086l-316-72L18-62"/>
    <path fill="#5c5d64" d="M-62 10l1148 232-72-304"/>
    <path fill="#fff" d="M98 442l340-328-4 484m380-344l-12 540 108-276"/>
    <path fill="#595a61" d="M110 322l328-208L34 34"/>
    <path fill="#515259" d="M486 474L242 706l244-8"/>
    <path fill="#fff" d="M674 418L342 838l212 76"/>
    <path fill="#57585f" d="M438 418l20-192 368 160"/>
    <path fill="#fff" d="M222 758L114 502l388-380"/>
    <path fill="#5c5d64" d="M1086 254l-288-76 196 504"/>
    <path fill="#fff" d="M726 166l164 228-548-236m156 236l252 92-256 404"/>
    <path fill="#4c4d54" d="M750 634l36-212 44 416"/>
    <path fill="#fff" d="M174 670l112 148 312 60"/>
    <path fill="#5d5e65" d="M190 750l44 248 200-92"/>
    <path fill="#fff" d="M458 558l-296 76 144-452m504 84l92 292-92 192"/>
    <path fill="#5a5c62" d="M542 842l44-104 232-56"/>
    <path fill="#5c5d63" d="M798 386l-228 20 232 100"/>
    <path fill="#51525a" d="M442 534l48-96-40-160"/>
    <path fill="#fff" d="M762 682l-48-228-312 312"/>
    <path fill="#727378" d="M46 194l80 452 44-452"/>
    <path fill="#707177" d="M326 574l128 152-192 16"/>
    <path fill="#fff" d="M210 738l280-620-304 184"/>
    <path fill="#727378" d="M902 466l-36 304 220-240"/>
    <path fill="#fff" d="M606 122l232 168-536-84m204 448L346 854l240 40m-304-80L150 622l20-276"/>
    <path fill="#737479" d="M726 110H554l380 176"/>
    <path fill="#fff" d="M726 482L502 894l-8-488m-60 168l-224-4 228-332"/>
    <path fill="#6e6f74" d="M254 714l12-92 116-52"/>
    <path fill="#7f8086" d="M-2-62l24 552 308-336"/>
    <path fill="#7c7d82" d="M814 898l-444-16-328 204"/>
    <path fill="#fff" d="M658 694L418 874 250 770"/>
    <path fill="#717277" d="M486 462L374 750l96-44"/>
    <path fill="#fff" d="M898 438l-92-128 16 412"/>
    <path fill="#77797e" d="M814 470l-60 192V334"/>
    <path fill="#fff" d="M874 366L694 170l-264 40M174 334l276 168-268 184"/>
    <path fill="#7e7f84" d="M774 670l312 384-524-216"/>
    <path fill="#7d7e83" d="M166 54l452 56-384 56"/>
    <path fill="#fff" d="M750 510l4 168-180 48m80-572L178 338l132-152"/>
    <path fill="#7d7e82" d="M234 218L110 498-62 390"/>
    <path fill="#808186" d="M1022 446L586 62l456 12"/>
  </g>
</svg>
