<svg xmlns="http://www.w3.org/2000/svg" width="100" height="100">
  <path fill="#34495e" d="M19 12v12h-1.5c-.8 0-1.5-.7-1.5-1.5v-9c0-1 .7-1.5 1.5-1.5H19z"/>
  <path fill="#c0392b" d="M20 13c.6 0 1 .4 1 1v8c0 .5-.4 1-1 1h-1V13h1z"/>
  <path fill="#e74c3c" d="M20 12h-2v12h2z"/>
  <path fill="#c0392b" d="M4 13c-.6 0-1 .4-1 1v8c0 .6.4 1 1 1h1V13H4z"/>
  <path fill="#34495e" d="M5 12v12h1.5c.8 0 1.5-.7 1.5-1.5v-9c0-1-.7-1.5-1.5-1.5H5zM12 0C6 0 1 4.7 1 11v1h1c0-4.7 3-8.5 7.3-9.7.2 0 .4 0 .7-.2h3.7l1 .3c4 1.2 7 5 7.2 9.6h1v-1c0-6.2-5-11-11-11z"/>
  <path fill="#2c3e50" d="M12 1C6 1 1 5.7 1 12h1c0-4.7 3-8.5 7.3-9.7.2 0 .4 0 .7-.2h3.7l1 .3c4 1.2 7 5 7.2 9.6h1c0-6.2-5-11-11-11z"/>
  <path fill="#2c3e50" d="M3.5 12.5c0 .8-.7 1.5-1.5 1.5S.5 13.3.5 12.5 1.2 11 2 11s1.5.7 1.5 1.5z"/>
  <path fill="#34495e" d="M1.4 12.2L3 18c0 .2.3.4.6.3.3 0 .4-.3.4-.6L2.4 12l-1 .2z"/>
  <path fill="#2c3e50" d="M20.5 12.5c0 .8.7 1.5 1.5 1.5s1.5-.7 1.5-1.5S22.8 11 22 11s-1.5.7-1.5 1.5z"/>
  <g fill="#34495e">
    <path d="M22.6 12.2L21 18c0 .2-.3.4-.6.3-.3 0-.4-.3-.4-.6l1.6-5.8 1 .2zM3 12.4c0 .6-.4 1-1 1s-1-.4-1-1 .4-1 1-1 1 .4 1 1z"/>
    <path d="M23 12.4c0 .6-.4 1-1 1s-1-.4-1-1 .4-1 1-1 1 .4 1 1z"/>
  </g>
  <path fill="#e74c3c" d="M4 12h2v12H4z"/>
</svg>
