<svg xmlns="http://www.w3.org/2000/svg" width="100" height="100">
  <path fill="#7f8c8d" d="M14 20.5a2 2.5 0 1 1-4 0 2 2.5 0 1 1 4 0z"/>
  <path fill="#f39c12" d="M12 2C8 2 5 5.2 5 9.2c0 3 3 6 4 7.8 1 1.8 0 5 0 5l3-.5 3 .5s-1-3.2 0-5c1-2 4-4.7 4-7.8 0-4-3-7.2-7-7.2z"/>
  <path fill="#f1c40f" d="M12 2c4 0 7 3.2 7 7.2 0 3-3 6-4 7.8-1 1.8 0 5 0 5l-3-.5V2z"/>
  <path fill="#e67e22" d="M9 8L8 9l4 12 4-12-1-1-1 1-1-1-1 1-1-1-1 1-1-1zm0 1l1 1 .5-.5.5-.5.5.5.5.5.5-.5.5-.5.5.5.5.5 1-1 .4.4L12 19.7 8.6 9.4 9 9z"/>
  <path fill="#bdc3c7" d="M9 17h6v5H9z"/>
  <path fill="#95a5a6" d="M9 17v5h3v-1h3v-1h-3v-1h3v-1h-3v-1H9z"/>
  <path fill="#7f8c8d" d="M9 18v1h3v-1H9zm0 2v1h3v-1H9z"/>
</svg>
