<svg xmlns="http://www.w3.org/2000/svg" width="100" height="100">
  <path fill="#2c3e50" d="M4 2C3 2 2 3 2 4v17c0 1 1 2 2 2h16c1 0 2-1 2-2V4c0-1-1-2-2-2H4z"/>
  <path fill="#16a085" d="M6 16h12v6H6zM6 1h12v7H6z"/>
  <path fill="#1abc9c" d="M6 7h12v10H6z"/>
  <path fill="#34495e" d="M4 1C3 1 2 2 2 3v17c0 1 1 2 2 2h2V1H4zm16 0c1 0 2 1 2 2v17c0 1-1 2-2 2h-2V1h2z"/>
  <path fill="#16a085" d="M3.5 3c-.3 0-.5.2-.5.5v1c0 .2.2.5.5.5h1c.3 0 .5-.3.5-.5v-1c0-.3-.2-.5-.5-.5h-1zm0 3c-.3 0-.5.2-.5.5v1c0 .2.2.5.5.5h1c.3 0 .5-.3.5-.5v-1c0-.3-.2-.5-.5-.5h-1zm0 3c-.3 0-.5.2-.5.5v1c0 .2.2.5.5.5h1c.3 0 .5-.3.5-.5v-1c0-.3-.2-.5-.5-.5h-1zm0 3c-.3 0-.5.2-.5.5v1c0 .2.2.5.5.5h1c.3 0 .5-.3.5-.5v-1c0-.3-.2-.5-.5-.5h-1zm0 3c-.3 0-.5.2-.5.5v1c0 .2.2.5.5.5h1c.3 0 .5-.3.5-.5v-1c0-.3-.2-.5-.5-.5h-1zm0 3c-.3 0-.5.2-.5.5v1c0 .2.2.5.5.5h1c.3 0 .5-.3.5-.5v-1c0-.3-.2-.5-.5-.5h-1zm16-15c-.3 0-.5.2-.5.5v1c0 .2.2.5.5.5h1c.3 0 .5-.3.5-.5v-1c0-.3-.2-.5-.5-.5h-1zm0 3c-.3 0-.5.2-.5.5v1c0 .2.2.5.5.5h1c.3 0 .5-.3.5-.5v-1c0-.3-.2-.5-.5-.5h-1zm0 3c-.3 0-.5.2-.5.5v1c0 .2.2.5.5.5h1c.3 0 .5-.3.5-.5v-1c0-.3-.2-.5-.5-.5h-1zm0 3c-.3 0-.5.2-.5.5v1c0 .2.2.5.5.5h1c.3 0 .5-.3.5-.5v-1c0-.3-.2-.5-.5-.5h-1zm0 3c-.3 0-.5.2-.5.5v1c0 .2.2.5.5.5h1c.3 0 .5-.3.5-.5v-1c0-.3-.2-.5-.5-.5h-1zm0 3c-.3 0-.5.2-.5.5v1c0 .2.2.5.5.5h1c.3 0 .5-.3.5-.5v-1c0-.3-.2-.5-.5-.5h-1z"/>
  <path fill="#ecf0f1" d="M10 15V9l5 3z"/>
</svg>
