<svg xmlns="http://www.w3.org/2000/svg" width="100" height="100">
  <path fill="#c0392b" d="M22 13c0 5.5-4.5 10-10 10S2 18.5 2 13 6.5 3 12 3s10 4.5 10 10z"/>
  <path fill="#e74c3c" d="M22 12c0 5.5-4.5 10-10 10S2 17.5 2 12 6.5 2 12 2s10 4.5 10 10z"/>
  <path fill="#c0392b" d="M7 9.4l3.6 3.6L7 16.5 8.6 18l3.5-3.6 3.6 3.5 1.4-1.6-3.6-3.5L17 9.3 15.4 8 12 11.5 8.5 8 7 9.4z"/>
  <path fill="#ecf0f1" d="M7 8.4l3.6 3.6L7 15.5 8.6 17l3.5-3.6 3.6 3.5 1.4-1.6-3.6-3.5L17 8.3 15.4 7 12 10.5 8.5 7 7 8.4z"/>
</svg>
