<svg xmlns="http://www.w3.org/2000/svg" width="128" height="128">
  <path id="settings" fill="currentColor" d="M117.5 79L107 71v-.5s.2 0 .2-.2c0-.6 0-1.3.2-2l.2-2.2V64v-.6-1-.5-1.2-.2-.3c0-.2 0-.4-.2-.6v-.2-.3-.3-.3-.2L107 57v-.2l10.5-7.7c2.5-1.4 3.3-4.5 2-7l-8.7-15c-1.5-2.4-4.6-3.3-7-2l-12 5.3h-.2V30c-.3 0-.5-.2-.6-.3-.2 0-.3-.3-.5-.4-.2 0-.3-.2-.4-.3v-.2c-.3 0-.4 0-.5-.2l-.2-.2-.5-.3h-.3l-.7-.6-1.3-.8s-.2 0-.3-.2L83.5 25 80 23.2h-.2c-.2 0-.3 0-.5-.2l-1.5-12.8c0-3-2.3-5.2-5.2-5.2H55.4c-3 0-5.2 2.3-5.2 5.2l-1.5 13h-.2-.3l-1.4.7h-.2l-1.3.5c-.2 0-.2.2-.3.2 0 0-.3 0-.4.2-.4 0-.7.3-1 .5-.3 0-.6.2-.8.4h-.5v.2H42c-.5.4-1 .8-1.6 1l-.2.2s-.2 0-.2.2l-1.5 1h-.2L36.8 30l-.2.2c-.2 0-.3.2-.4.3l-12-5.2c-2.4-1.3-5.5-.4-7 2L8.6 42c-1.4 2.5-.6 5.6 2 7L20.8 57v.4c-.2 0-.2.3-.2.4l-.2 1.8v.3l-.2 1.6V68l.3 1.2c0 .6 0 1 .2 1.7v.2L10.4 79c-2.5 1.4-3.3 4.5-2 7l8.7 15c1.5 2.4 4.6 3.3 7 2l12-5.3s.2 0 .3.2c0 0 .3 0 .4.2 0 .2.3.4.5.5l.4.3.4.4s.2 0 .2.2l.6.3h.3c.6.6 1.3 1 2 1.4l.3.2 2.6 1.4 4.3 2 1.5 12.8c0 3 2.3 5.2 5.2 5.2h17.2c3 0 5.2-2.3 5.2-5.2l1.5-13h.4l1.5-.6.2-.2 1.3-.5c.2 0 .2 0 .2-.2 0 0 .3 0 .4-.2.4 0 .7-.3 1-.4l.8-.4c.2 0 .3-.2.4-.3l.2-.2 2-1v-.2s.2 0 .3-.2l1.5-1 1.7-1.2s0-.2.2-.2l.4-.3 12 5.2c2.4 1.3 5.5.4 7-2l8.6-15c1.4-2.5.6-5.6-2-7zM64 82c-10 0-18-8-18-18s8-18 18-18 18 8 18 18-8 18-18 18z"/>
</svg>
