<svg xmlns="http://www.w3.org/2000/svg" width="128" height="128">
  <g id="tools" fill="currentColor">
    <path d="M103 117l12.7-13-62-62c1-2.5 1.6-5.3 1.6-8.2C55.3 21.2 45 11 32.6 11H32l-.6.4c-.4.2-.7.5-1 1V14l.5 1 1 1 2.2 2.6 6 5.2L42 35.2l-8 8L22.7 42 19 37.3l-3.4-3.7-1.4-1.3-.7-.5c0-.2-.3-.3-.5-.3l-1-.2c-.2 0-.5 0-.8.2-.3 0-.5.3-.7.5-.3.3-.5.6-.6 1-.7.2-.7.4-.7.6 0 12.4 10.4 22.7 23 22.7 3 0 5.6-.6 8.2-1.6l62 62z"/>
    <path d="M70.2 72.4l10-10-3.8-3.6L111 24.2l7.2-10.3-2.7-3-10.2 7-34.6 35-3.7-4-10 10L43.6 65l-31 31.2 20 20 31.2-31z"/>
  </g>
</svg>
