<svg xmlns="http://www.w3.org/2000/svg" width="24" height="24">
    <g id="unlike" fill="currentColor">
        <path d="M13.7 22.4c-.6 0-1.2-.4-1.5-1v-2.8c-1-2.8-2-4.7-3.8-5.7-.2-.2-.3-.3-.3-.5V4.3c0-1 2-1.7 2.6-1.7H20c.3 0 .8.3 1 .7.6.6 1 1.4 1 2 .7.7 1 1.6 1 3 .8.8.8 2 .5 2.8.3.6.4 1.4.4 2 0 1.5-2.3 2.6-3.2 2.6h-4.2c.7 3 0 4.8-.7 5.5-.7 1-1.5 1.4-2.3 1.4zM13 21c.3.3.5.4.7.4.5 0 1-.4 1.4-1 .6-.5 1.3-2 .5-5v-.6l.5-.2h4.8c.6 0 2-.8 2-1.7v-1.3c-.2 0-.3-.2-.4-.3V11c.3-.4.5-1.5-.2-2-.2-.2-.2-.4-.2-.5 0-1.3-.2-2-.8-2.4-.2 0-.3-.2-.3-.4 0-.5-.2-1.2-.6-1.6l-.5-.4h-9.4c-.4 0-1.4.5-1.5.8v7.8c2 1.2 3 3.3 4 6v2.9z"/>
        <path d="M7.4 15.6H2c-1 0-2-.7-2-1.7V3.3c0-1 1-1.8 2-1.8h5.4c1 0 1.7.8 1.7 1.8V14c0 1-.7 1.6-1.6 1.6zM2 2.6c-.5 0-1 .4-1 .8V14c0 .3.5.6 1 .6h5.4c.4 0 .7-.3.7-.7V3.3c0-.4-.2-.8-.6-.8H2z"/>
    </g>
</svg>
