<svg xmlns="http://www.w3.org/2000/svg" version="1" viewBox="0 0 8270 5830">
  <g id="layer1" fill="#444">
    <path d="M3295 5638c-12-115-11-361 2-384 14-25 59-39 77-25 8 7 24 7 48-1 30-9 42-8 74 8 53 26 77 63 81 126 8 109-74 186-164 154-22-7-23-5-23 41 0 80-16 120-52 132-17 6-32 11-34 11-1 0-5-28-9-62zm169-200c18-25 21-100 6-128s-46-43-67-31c-16 8-18 21-15 95l3 86h29c18 0 34-8 44-22zm-1134 79c-13-7-27-23-31-37-9-34-10-161-2-309l6-122 26 6c45 10 58 37 66 135l7 91 22-19c28-26 58-40 74-35 19 7 14 23-13 45l-25 19 24 32c13 18 40 67 59 110 36 78 36 78 14 86-47 18-62 4-123-112l-43-82-1 96c0 79-3 98-16 103-19 7-14 8-44-7zm415 6c-80-20-126-73-127-147-2-108 101-181 207-146 42 14 75 60 75 106s-15 54-102 54c-71 0-78 2-78 20 0 25 34 60 59 60 11 0 33-11 49-25 38-32 62-33 62-1 0 24-50 76-73 76-7 0-21 2-32 4s-29 2-40-1zm64-182c25-16-2-61-37-61-34 0-52 16-52 47 0 20 5 23 38 23 20 0 43-4 51-9zm250 177c-20-5-51-25-70-44-28-29-33-42-36-91-5-73 19-116 80-143 102-47 197 0 197 99 0 43-17 51-102 51-86 0-94 7-57 54 26 33 46 33 89 1 55-40 83-29 56 23-23 45-94 68-157 50zm88-184c9-25-10-49-43-52-30-4-54 18-54 50 0 15 8 18 45 18 33 0 47-5 52-16zm666 186c-37-15-47-48-46-155 0-76-4-103-15-115-14-13-14-15 0-18 12-2 18-20 23-68 7-57 10-64 29-64 39 0 59 24 65 76 5 44 9 49 35 54 40 7 46 30 8 30-27 0-30 3-36 46-3 26-6 84-6 129 0 66-3 84-16 89-9 3-16 6-17 5-1 0-12-4-24-9zm180 0c-12-5-26-22-30-37-11-38-4-416 7-427 12-12 67 12 75 32 4 10 9 47 12 84l6 66 28-10c39-13 91 5 124 43 23 29 25 38 25 139 0 117-6 129-54 110-31-11-36-28-36-115s-5-104-36-115c-46-18-51-6-59 113-8 125-14 136-62 117zm404-4c-51-19-73-40-93-92-41-108 50-217 168-201 73 10 128 91 99 146-10 19-21 21-91 21-73 0-80 2-80 20 0 26 34 60 59 60 11 0 32-11 47-25 32-30 64-33 64-6 0 30-38 70-78 81-46 12-48 12-95-4zm91-174c9-7 10-15 3-35-19-48-91-32-91 20 0 20 5 23 38 23 20 0 43-4 50-8zm301 170c-22-19-24-29-28-119-2-54 0-153 4-221l7-124 27 7c45 11 55 30 59 110 2 41 5 75 7 75 1 0 16-5 33-11 45-16 113 16 135 64 36 75 14 177-45 211-27 16-45 19-120 15-7 0-22 2-34 6-13 4-29-1-45-13zm161-88c22-66-12-139-62-132-22 3-23 7-26 90-2 76-1 87 15 90 31 7 62-14 73-48zm257 92c-52-19-85-52-98-97-33-107 60-211 173-196 22 3 49 14 60 24 44 39 57 114 24 135-6 4-45 8-87 8h-76l5 26c10 54 73 66 115 23 24-26 57-25 57 2 0 25-52 79-77 79-10 0-27 2-38 5s-37-2-58-9zm88-177c4-5 4-21 1-35-5-19-13-24-40-24-29 0-36 5-45 31-6 18-11 34-11 35 0 9 90 3 95-7zm223 177c-58-16-80-33-76-60 5-33 60-34 82-2 19 30 73 36 83 10 8-22-12-39-81-66-33-13-68-35-79-50-18-24-19-30-7-59 25-59 137-87 215-55 57 24 73 86 23 86-15 0-27-9-33-22-8-19-18-23-54-23-25 0-46 5-48 12-2 6 33 30 77 54 89 46 108 70 93 115-18 55-109 83-195 60zm304 4c-33-14-42-49-42-160 0-55-4-102-10-105-15-9-12-25 5-25 12 0 15-14 15-65 0-65 0-65 28-65 38 0 59 25 67 82 6 41 10 47 33 50 37 4 41 28 4 28h-29l-6 127c-8 143-13 153-65 133zm-2486-794c-38-14-92-41-120-60-74-49-193-162-242-228l-42-57-12 47c-55 223-203 320-470 310-134-6-202-27-280-89-116-92-158-151-192-275-21-76-22-99-22-534l-1-455 142-3 143-3 37 42 38 42 5 449c6 519-2 483 103 476 65-5 101-26 132-79 19-32 20-57 25-399 6-405 6-408 73-467 38-34 77-48 164-59 50-6 52-6 85 31l33 38 5 439 5 439 103-75 102-74 43 43c23 23 51 58 62 76s40 47 63 64c58 40 137 43 176 6 49-47 28-93-90-196-44-38-127-117-185-175-137-136-164-188-164-310 0-72 4-92 27-135 101-191 357-253 570-138 51 28 150 133 180 191 35 70 10 178-52 222-37 27-60 17-132-54-31-31-71-61-90-67-65-19-148 14-148 60 0 10 30 41 68 72 91 73 273 251 322 314 41 53 78 143 82 199 1 17 5-163 8-401l5-431 31-39c37-47 101-80 181-94l61-11 41 44 40 43 1 628v627h-296l-32-33-32-33-1-134-1-135-13 63c-20 89-52 147-112 202-72 66-143 92-263 97-82 3-104 0-164-21zm254-110c70-35 124-87 158-151 24-45 27-61 27-150 0-78-4-108-19-135-42-79-104-146-251-270-85-72-163-143-175-159-27-40-25-72 8-104 49-47 144-53 221-12 29 15 95 83 103 106 7 21 52-12 72-54 50-107-19-216-174-273-28-10-80-16-135-17-81-1-96 2-155 30-120 57-182 146-182 263-1 127 59 216 264 387 202 170 241 243 168 317-39 40-125 48-191 18-56-25-119-80-157-136l-29-45-69 51c-38 27-78 56-89 64-19 14-19 14 0 51 51 95 169 190 283 230 57 20 82 23 167 20 86-2 108-7 155-31zm-1025 9c121-32 202-109 246-234 23-65 24-74 27-520l3-454-55 6c-67 7-110 31-139 77-21 34-22 47-27 400-6 393-8 409-63 468-68 74-208 78-275 9-60-62-62-76-62-538v-419h-230v413c1 434 7 514 48 608 39 89 122 159 221 185 66 18 235 17 306-1zm1585-606v-602l-51 6c-66 8-128 43-153 87-20 34-21 51-24 573l-3 537h231v-601zm1626 716c-135-28-253-102-387-242-154-162-223-375-186-578 20-112 51-178 105-225 38-34 43-42 32-55-11-14-4-25 51-81 78-79 148-124 254-160 70-25 95-28 200-28 206 0 322 50 476 206 110 111 159 179 193 262l24 58 5-168c5-189 13-228 60-278 49-52 111-66 291-66 274 0 350 25 475 155 114 119 151 203 151 345 0 196-96 367-248 442-62 31-73 33-172 33-90 0-111-3-147-23l-43-22v410h-296l-37-38-37-38v-338l-39 81c-73 150-220 279-376 329-100 32-247 40-349 19zm215-99c163-35 337-172 413-326 66-134 82-319 40-462-61-205-246-386-445-433-134-31-303-14-417 44-68 34-178 115-192 142-10 17-9 17 27 2 23-10 67-17 113-17 62-1 84 4 130 26 50 25 60 26 95 17 22-6 74-9 117-7 104 6 186 46 261 128 167 180 132 482-72 618-74 49-140 66-239 60-197-12-349-164-360-359-6-96 13-154 63-198 51-44 98-50 157-19l48 26v-58c0-107-81-175-209-173-129 1-228 72-267 190-28 87-27 283 3 378 50 160 168 297 318 371 127 63 273 80 416 50zm811-503l3-488 108-3c161-4 220 19 258 102 48 107-7 253-108 287-47 15-155 6-189-16-14-9-27-15-29-13-15 19-25 56-25 99 0 71 26 111 92 139 76 32 201 26 282-15 138-70 226-230 226-413 0-166-78-296-213-358-61-29-64-29-277-32-208-3-216-2-259 20-31 16-51 36-65 63-20 39-21 58-24 578l-3 537h221l2-487zm-803 230c121-58 193-169 199-307 10-199-70-313-231-332-59-7-153 1-176 15-11 7-9 15 10 41 21 27 24 43 24 113 0 45-4 91-8 101-7 18-9 18-35-6-73-68-113-74-166-28-46 41-59 85-54 181 3 57 11 91 29 126 62 119 263 166 408 96zm1092-390c41-35 59-79 59-145 0-81-3-82-130-86l-110-4v120c0 137 2 140 97 141 42 1 57-4 84-26zm-5789 742c-42-18-154-118-189-168-15-22-44-87-64-145l-38-107v213l-1 212H868l-143-1-38-35-37-35 2-568 3-567 27-41c40-61 101-86 216-91l94-4 37 36c35 34 46 61 141 351 57 173 106 312 109 309 4-3 58-159 122-347l117-342 176-3 175-2 35 37 35 38 1 633v632h-142l-143-1-37-34-38-35-1-153-1-152-32 95c-51 148-52 162-16 203 16 19 30 37 30 40s-28 15-62 26c-71 24-149 26-196 6zm107-96c31-11 31-12 15-30-32-36-20-96 81-401 54-161 101-297 106-302 5-6 9 149 9 362v372h220V3420h-297l-139 410c-76 226-141 410-144 410s-66-183-141-407l-136-408-74-3c-41-2-90 1-109 7-47 14-99 69-111 117-4 22-9 272-9 557v517h230l1-367 1-368 98 293c118 350 138 390 225 435 35 19 128 22 174 6zm3169 66l-38-35v-900h-92l-93-1-43-40-43-40 3-142 3-142 442-3 443-2 34 37c27 29 36 47 36 74 0 92-65 206-137 235-18 8-67 17-108 21l-75 6v967h-147l-148-1-37-34zm232-555v-490h98c88 0 101-2 136-26 43-29 86-110 86-161v-33h-820v219l133 3 132 3 3 488 2 487h230v-490zM3180 3039c0-8 39-243 87-523l87-509-379-373c-346-339-378-373-355-378 52-13 975-143 983-139 4 2 7 310 7 684v679h190l2-402 3-403 155 247c85 135 157 245 160 243s73-109 155-239c83-129 153-235 158-236 4 0 7 178 7 395v395h190v-679c0-374 3-682 8-684 7-4 930 126 982 139 23 5-8 39-355 378l-379 373 88 517c49 284 86 519 83 522s-215-105-471-239l-466-245-456 239c-251 132-462 243-470 246s-14-1-14-8z"/>
    <path d="M3885 1463c-126-201-229-370-227-376 8-28 456-927 462-927s453 898 462 927c3 10-453 742-462 742-3 0-108-165-235-366z"/>
  </g>
  <g id="layer2" fill="#fefefe">
    <path d="M0 2915V0h8270v5830H0V2915zm3338 2774c36-12 52-52 52-132 0-46 1-48 23-41 90 32 172-45 164-154-4-63-28-100-81-126-32-16-44-17-74-8-24 8-40 8-48 1-18-14-63 0-77 25-17 30-10 446 7 446 2 0 17-5 34-11zm-964-165c13-5 16-24 16-103l1-96 43 82c61 116 76 130 123 112 22-8 22-8-14-86-19-43-46-92-59-110l-24-32 25-19c27-22 32-38 13-45-16-5-46 9-74 35l-22 19-7-91c-8-98-21-125-66-135l-26-6-6 122c-8 148-7 275 2 309 4 14 18 30 31 37 30 15 25 14 44 7zm443-4c23 0 73-52 73-76 0-32-24-31-62 1-16 14-38 25-49 25-25 0-59-35-59-60 0-18 7-20 78-20 87 0 102-8 102-54 0-74-68-124-153-113-107 14-165 139-108 231 28 44 100 79 146 70 11-2 25-4 32-4zm356-12c29-11 62-61 52-78-10-16-29-12-65 15-43 32-63 32-89-1-37-47-29-54 57-54 85 0 102-8 102-51 0-68-52-119-120-119-51 1-116 34-140 72-17 26-20 45-17 91 3 49 8 62 36 91 51 52 110 63 184 34zm681 16c13-5 16-23 16-89 0-45 3-103 6-129 6-43 9-46 36-46 38 0 32-23-8-30-26-5-30-10-35-54-6-52-26-76-65-76-19 0-22 7-29 64-5 48-11 66-23 68-14 3-14 5 0 18 11 12 15 39 15 115-1 122 7 141 70 164 1 1 8-2 17-5zm182-2c7-4 15-54 19-119 8-119 13-131 59-113 31 11 36 28 36 115s5 104 36 115c48 19 54 7 54-110 0-101-2-110-25-139-33-38-85-56-124-43l-28 10-6-66c-3-37-8-74-12-84-8-20-63-44-75-32-11 11-18 389-7 427 4 15 18 32 30 37 28 11 30 11 43 2zm456-2c40-11 78-51 78-81 0-27-32-24-64 6-15 14-36 25-47 25-25 0-59-34-59-60 0-18 7-20 80-20 70 0 81-2 91-21 16-31 3-82-30-113-56-53-154-44-210 19-39 45-48 93-27 149 20 52 42 73 93 92 47 16 49 16 95 4zm376-1c75 4 93 1 120-15 59-34 81-136 45-211-22-48-90-80-135-64-17 6-32 11-33 11-2 0-5-34-7-75-4-80-14-99-59-110l-27-7-7 124c-4 68-6 167-4 221 4 90 6 100 28 119 16 12 32 17 45 13 12-4 27-6 34-6zm435 1c25 0 77-54 77-79 0-27-33-28-57-2-42 43-105 31-115-23l-5-26h76c42 0 81-4 87-8 33-21 20-96-24-135-27-24-90-32-135-18-46 15-94 70-103 117-8 46 9 104 40 133 30 28 94 52 121 46 11-3 28-5 38-5zm371-19c35-20 53-63 38-95-6-13-44-40-92-65-44-24-79-48-77-54 2-7 23-12 48-12 36 0 46 4 54 23 6 13 18 22 33 22 50 0 34-62-23-86-78-32-190-4-215 55-12 29-11 35 7 59 11 15 46 37 79 50 69 27 89 44 81 66-10 26-64 20-83-10-22-32-77-31-82 2-9 60 151 91 232 45zm194 21c8-6 14-50 19-135l6-127h29c37 0 33-24-4-28-23-3-27-9-33-50-8-57-29-82-67-82-28 0-28 0-28 65 0 51-3 65-15 65-17 0-20 16-5 25 6 3 10 50 10 105 0 111 9 146 42 160 29 11 31 11 46 2zm-2216-801c71-27 155-102 186-165 13-25 29-74 37-108l13-63 1 135 1 134 32 33 32 33h296v-627l-1-628-40-43-41-44-61 11c-80 14-144 47-181 94l-31 39-5 431c-3 238-7 418-8 401-4-56-41-146-82-199-49-63-231-241-322-314-38-31-68-62-68-72 0-46 83-79 148-60 19 6 59 36 90 67 72 71 95 81 132 54 37-26 70-96 70-146 0-52-24-97-94-177-95-107-205-152-355-145-144 7-257 75-319 193-23 43-27 63-27 135 0 122 27 174 164 310 58 58 141 137 185 175 118 103 139 149 90 196-39 37-118 34-176-6-23-17-52-46-63-64s-39-53-62-76l-43-43-102 74-103 75-5-439-5-439-33-38c-33-37-35-37-85-31-87 11-126 25-164 59-67 59-67 62-73 467-5 342-6 367-25 399-31 53-67 74-132 79-105 7-97 43-103-476l-5-449-38-42-37-42-143 3-142 3 1 455c0 435 1 458 22 534 34 124 76 183 192 275 78 62 146 83 280 89 126 5 205-9 288-50 83-42 153-142 182-260l12-47 42 57c49 66 168 179 242 228 28 19 82 46 120 60 60 21 82 24 164 21 67-3 112-10 152-26zm2473-5c156-50 303-179 376-329l39-81v338l37 38 37 38h296v-410l43 22c36 20 57 23 147 23 99 0 110-2 172-33 222-109 316-430 196-665-11-22-55-76-99-122-125-130-201-155-475-155-180 0-242 14-291 66-47 50-55 89-60 278l-5 168-24-58c-34-83-83-151-193-262-154-156-270-206-476-206-105 0-130 3-200 28-106 36-176 81-254 160-55 56-62 67-51 81 11 13 6 21-32 55-54 47-85 113-105 225-37 203 32 416 186 578 184 193 334 261 556 253 72-3 123-11 180-30zm-4627-7c34-11 62-23 62-26s-14-21-30-40c-36-41-35-55 16-203l32-95 1 152 1 153 38 35 37 34 143 1h142v-632l-1-633-35-38-35-37-175 2-176 3-117 342c-64 188-118 344-122 347-3 3-52-136-109-309-95-290-106-317-141-351l-37-36-94 4c-115 5-176 30-216 91l-27 41-3 567-2 568 37 35 38 35 143 1h142l1-212v-213l38 107c20 58 49 123 64 145 35 50 147 150 189 168 47 20 125 18 196-6zm3412-473v-483l75-6c41-4 90-13 108-21 72-29 137-143 137-235 0-27-9-45-36-74l-34-37-443 2-442 3-3 142-3 142 43 40 43 40 93 1h92v900l38 35 37 34 148 1h147v-484zM3664 2801l456-239 466 245c256 134 468 242 471 239s-34-238-83-522l-88-517 379-373c347-339 378-373 355-378-52-13-975-143-982-139-5 2-8 310-8 684v679h-190v-395c0-217-3-395-7-395-5 1-75 107-158 236-82 130-152 237-155 239s-75-108-160-243l-155-247-3 403-2 402h-190v-679c0-374-3-682-7-684-8-4-931 126-983 139-23 5 9 39 355 378l379 373-87 509c-48 280-87 515-87 523 0 7 6 11 14 8s219-114 470-246zm691-1338c127-201 229-370 227-376-9-29-456-927-462-927s-454 899-462 927c-3 10 453 742 462 742 3 0 109-165 235-366z"/>
    <path d="M3388 5374c-3-74-1-87 15-95 39-22 77 24 77 93 0 56-22 88-60 88h-29l-3-86zm-668-47c0-51 71-68 92-21 15 32 0 44-54 44-33 0-38-3-38-23zm330 5c0-32 24-54 54-50 33 3 52 27 43 52-5 11-19 16-52 16-37 0-45-3-45-18zm1350-5c0-31 18-47 52-47 22 0 31 6 39 27 12 33 0 43-53 43-33 0-38-3-38-23zm477 145c-16-3-17-14-15-90 3-83 4-87 26-90 32-5 59 22 67 64 12 68-27 127-78 116zm323-126c0-1 5-17 11-35 9-26 16-31 45-31 27 0 35 5 40 24 3 14 3 30-1 35-5 10-95 16-95 7zm-1932-719c-114-40-232-135-283-230-19-37-19-37 0-51 11-8 51-37 89-64l69-51 29 45c38 56 101 111 157 136 66 30 152 22 191-18 73-74 34-147-168-317-205-171-265-260-264-387 0-117 62-206 182-263 59-28 74-31 155-30 226 3 377 145 309 290-20 42-65 75-72 54-8-23-74-91-103-106-77-41-172-35-221 12-33 32-35 64-8 104 12 16 90 87 175 159 147 124 209 191 251 270 15 27 19 57 19 135 0 89-3 105-27 150-34 64-88 116-158 151-47 24-69 29-155 31-85 3-110 0-167-20zm-1009-1c-99-26-182-96-221-185-41-94-47-174-48-608v-413h230v419c0 462 2 476 62 538 67 69 207 65 275-9 55-59 57-75 63-468 5-353 6-366 27-400 29-46 72-70 139-77l55-6-3 454c-3 446-4 455-27 520-44 125-125 202-246 234-71 18-240 19-306 1zm1663-543c3-522 4-539 24-573 25-44 87-79 153-87l51-6v1203h-231l3-537zm1798 556c-30-5-95-29-145-53-150-74-268-211-318-371-30-95-31-291-3-378 39-118 138-189 267-190 128-2 209 66 209 173v58l-48-26c-59-31-106-25-157 19-50 44-69 102-63 198 11 195 163 347 360 359 99 6 165-11 239-60 204-136 239-438 72-618-75-82-157-122-261-128-43-2-95 1-117 7-35 9-45 8-95-17-46-22-68-27-130-26-46 0-90 7-113 17-36 15-37 15-27-2 14-27 124-108 192-142 114-58 283-75 417-44 199 47 384 228 445 433 42 143 26 328-40 462-51 103-170 223-273 274-120 61-259 79-411 55zm862-556c3-520 4-539 24-578 14-27 34-47 65-63 43-22 51-23 259-20 213 3 216 3 277 32 135 62 213 192 213 358 0 183-88 343-226 413-81 41-206 47-282 15-66-28-92-68-92-139 0-43 10-80 25-99 2-2 15 4 29 13 34 22 142 31 189 16 101-34 156-180 108-287-38-83-97-106-258-102l-108 3-3 488-2 487h-221l3-537z"/>
    <path d="M5762 4386c-132-33-192-107-200-245-5-96 8-140 54-181 53-46 93-40 166 28 26 24 28 24 35 6 4-10 8-56 8-101 0-70-3-86-24-113-28-39-21-46 57-56 129-16 242 24 292 103 59 93 67 258 18 365-71 152-244 235-406 194zm1171-398c-22-11-23-17-23-130v-120l110 4c127 4 130 5 130 86 0 66-18 110-59 145-27 22-42 27-84 26-29 0-62-5-74-11zm-5698 625c-87-45-107-85-225-435l-98-293-1 368-1 367H680v-517c0-285 5-535 9-557 12-48 64-103 111-117 19-6 68-9 109-7l74 3 136 408c75 224 138 407 141 407s68-184 144-410l139-410h297v1200h-220v-372c0-213-4-368-9-362-5 5-52 141-106 302-101 305-113 365-81 401 16 18 16 19-15 30-46 16-139 13-174-6zm3343-480l-3-488-132-3-133-3v-219h820v33c0 51-43 132-86 161-35 24-48 26-136 26h-98v980h-230l-2-487z"/>
  </g>
</svg>
